<svg width="24" height="24" viewBox="0 0 24 24" fill="none" xmlns="http://www.w3.org/2000/svg">
<path d="M11.0001 17H13.0001V13H17.0001V11H13.0001V7H11.0001V11H7.00006V13H11.0001V17ZM12.0001 22C10.6167 22 9.31673 21.7417 8.10006 21.225C6.8834 20.6917 5.82506 19.975 4.92506 19.075C4.02506 18.175 3.30839 17.1167 2.77506 15.9C2.25839 14.6833 2.00006 13.3833 2.00006 12C2.00006 10.6167 2.25839 9.31667 2.77506 8.1C3.30839 6.88333 4.02506 5.825 4.92506 4.925C5.82506 4.025 6.8834 3.31667 8.10006 2.8C9.31673 2.26667 10.6167 2 12.0001 2C13.3834 2 14.6834 2.26667 15.9001 2.8C17.1167 3.31667 18.1751 4.025 19.0751 4.925C19.9751 5.825 20.6834 6.88333 21.2001 8.1C21.7334 9.31667 22.0001 10.6167 22.0001 12C22.0001 13.3833 21.7334 14.6833 21.2001 15.9C20.6834 17.1167 19.9751 18.175 19.0751 19.075C18.1751 19.975 17.1167 20.6917 15.9001 21.225C14.6834 21.7417 13.3834 22 12.0001 22ZM12.0001 20C14.2334 20 16.1251 19.225 17.6751 17.675C19.2251 16.125 20.0001 14.2333 20.0001 12C20.0001 9.76667 19.2251 7.875 17.6751 6.325C16.1251 4.775 14.2334 4 12.0001 4C9.76673 4 7.87506 4.775 6.32506 6.325C4.77506 7.875 4.00006 9.76667 4.00006 12C4.00006 14.2333 4.77506 16.125 6.32506 17.675C7.87506 19.225 9.76673 20 12.0001 20Z" fill="#49454F"/>
</svg>
