<svg width="24" height="24" viewBox="0 0 24 24" fill="none" xmlns="http://www.w3.org/2000/svg">
<path d="M15.5001 11C15.9167 11 16.2709 10.8542 16.5626 10.5625C16.8542 10.2708 17.0001 9.91667 17.0001 9.5C17.0001 9.08333 16.8542 8.72917 16.5626 8.4375C16.2709 8.14583 15.9167 8 15.5001 8C15.0834 8 14.7292 8.14583 14.4376 8.4375C14.1459 8.72917 14.0001 9.08333 14.0001 9.5C14.0001 9.91667 14.1459 10.2708 14.4376 10.5625C14.7292 10.8542 15.0834 11 15.5001 11ZM8.50006 11C8.91673 11 9.2709 10.8542 9.56256 10.5625C9.85423 10.2708 10.0001 9.91667 10.0001 9.5C10.0001 9.08333 9.85423 8.72917 9.56256 8.4375C9.2709 8.14583 8.91673 8 8.50006 8C8.0834 8 7.72923 8.14583 7.43756 8.4375C7.1459 8.72917 7.00006 9.08333 7.00006 9.5C7.00006 9.91667 7.1459 10.2708 7.43756 10.5625C7.72923 10.8542 8.0834 11 8.50006 11ZM12.0001 17.5C13.1334 17.5 14.1626 17.1792 15.0876 16.5375C16.0126 15.8958 16.6834 15.05 17.1001 14H6.90006C7.31673 15.05 7.98756 15.8958 8.91256 16.5375C9.83756 17.1792 10.8667 17.5 12.0001 17.5ZM12.0001 22C10.6167 22 9.31673 21.7375 8.10006 21.2125C6.88339 20.6875 5.82506 19.975 4.92506 19.075C4.02506 18.175 3.31256 17.1167 2.78756 15.9C2.26256 14.6833 2.00006 13.3833 2.00006 12C2.00006 10.6167 2.26256 9.31667 2.78756 8.1C3.31256 6.88333 4.02506 5.825 4.92506 4.925C5.82506 4.025 6.88339 3.3125 8.10006 2.7875C9.31673 2.2625 10.6167 2 12.0001 2C13.3834 2 14.6834 2.2625 15.9001 2.7875C17.1167 3.3125 18.1751 4.025 19.0751 4.925C19.9751 5.825 20.6876 6.88333 21.2126 8.1C21.7376 9.31667 22.0001 10.6167 22.0001 12C22.0001 13.3833 21.7376 14.6833 21.2126 15.9C20.6876 17.1167 19.9751 18.175 19.0751 19.075C18.1751 19.975 17.1167 20.6875 15.9001 21.2125C14.6834 21.7375 13.3834 22 12.0001 22ZM12.0001 20C14.2334 20 16.1251 19.225 17.6751 17.675C19.2251 16.125 20.0001 14.2333 20.0001 12C20.0001 9.76667 19.2251 7.875 17.6751 6.325C16.1251 4.775 14.2334 4 12.0001 4C9.76673 4 7.87506 4.775 6.32506 6.325C4.77506 7.875 4.00006 9.76667 4.00006 12C4.00006 14.2333 4.77506 16.125 6.32506 17.675C7.87506 19.225 9.76673 20 12.0001 20Z" fill="#1D1B20"/>
</svg>
